<svg width="770" height="391" viewBox="0 0 770 391" fill="none" xmlns="http://www.w3.org/2000/svg">
<g opacity="0.1">
<g opacity="0.51">
<path d="M379.635 78.4351C380.068 79.4606 380.194 80.59 379.997 81.6856C379.8 82.7813 379.288 83.7959 378.524 84.6059C378.425 85.0129 378.424 85.4375 378.52 85.8451C378.617 86.2526 378.808 86.6315 379.08 86.9508C380.009 87.872 381.232 88.4395 382.535 88.5552C384.386 88.5552 386.546 86.7657 387.595 89.666C391.359 89.666 394.075 85.7167 398.147 87.6913C399.135 88.185 401.109 86.5806 402.775 85.9018C402.652 84.712 402.652 83.5125 402.775 82.3227C403.701 77.3244 404.565 77.0776 408.576 80.2247C410.119 78.8671 410.736 77.6329 408.576 75.8434C406.416 74.0538 407.403 73.1899 409.502 72.5728C411.6 71.9558 412.587 72.1409 414.13 72.0175L420.3 71.5238V70.6599C419.228 70.2746 418.106 70.046 416.968 69.9811C414.799 70.6722 412.566 71.1476 410.304 71.4004C407.772 71.2075 405.321 70.4256 403.146 69.1172C402.035 68.3767 403.516 62.1442 404.812 61.2186C407.095 59.3674 409.44 57.5161 412.587 55.0478C410.982 54.4924 409.563 53.5051 408.452 53.8136C406.526 54.3862 404.74 55.3528 403.207 56.6522C401.911 57.763 401.109 59.3056 399.875 60.5398C398.641 61.774 396.728 62.4527 395.556 63.7486C393.272 66.1552 393.581 67.883 396.173 69.9194C396.489 70.0646 396.772 70.2721 397.006 70.5292C397.241 70.7864 397.421 71.0881 397.536 71.4163C397.651 71.7445 397.699 72.0925 397.677 72.4397C397.655 72.7868 397.563 73.1259 397.407 73.4367C397.085 74.0699 396.533 74.5557 395.864 74.7943C394.988 75.203 394.242 75.8458 393.709 76.6516C393.175 77.4574 392.875 78.3949 392.84 79.3608C392.84 81.2737 392.84 84.0506 389.2 83.3101C385.003 88.8021 385.127 83.3101 383.954 81.2737C383.786 80.8446 383.58 80.4315 383.337 80.0395C382.165 78.1266 381.301 75.3497 379.573 74.6092C377.845 73.8687 376.056 76.337 374.143 77.2009C373.093 77.5731 371.941 77.5314 370.921 77.0843C369.9 76.6373 369.089 75.8184 368.651 74.7943C367.83 72.8183 367.27 70.744 366.985 68.6235C366.953 67.8941 367.074 67.1661 367.339 66.4861C367.605 65.806 368.01 65.1889 368.527 64.6742C371.007 62.3778 373.985 60.688 377.228 59.7376C379.695 58.5103 381.816 56.6861 383.399 54.4307C385.991 51.5305 388.397 48.2599 390.557 45.6065L385.744 46.7789C386.861 45.733 388.081 44.8027 389.385 44.0021C390.766 43.5273 392.193 43.1964 393.643 43.0147C395.062 42.2125 397.407 39.4974 399.196 39.8676C402.405 40.4847 404.75 38.0781 407.774 38.8186C409.193 39.1271 411.044 37.461 413.389 36.3503L412.155 38.942C413.432 38.2897 414.808 37.8519 416.228 37.6462C418.567 37.9558 420.878 38.451 423.139 39.1271L422.337 40.3613C427.273 41.5337 432.272 42.4594 437.085 43.8787C439.826 44.739 442.473 45.8762 444.984 47.2726C447.082 48.3216 447.205 49.8643 444.984 50.9751C440.85 52.5505 436.282 52.5505 432.148 50.9751C430.854 50.471 429.453 50.3012 428.076 50.4814L431.963 52.5177C431.963 57.1458 434.802 59.5525 439.368 58.1949L436.283 56.2203V55.4798L444.181 56.7139L442.762 53.8136C444.305 53.0731 445.909 52.3944 447.514 51.7773C449.263 51.4055 451.036 51.1581 452.821 51.0368C452.237 50.2432 451.817 49.3411 451.586 48.3833C451.433 46.9682 451.433 45.5406 451.586 44.1255L457.757 45.4214V46.5938L454.857 47.6428C457.078 51.0368 457.942 50.7282 461.028 48.445C463.617 46.78 466.419 45.4723 469.358 44.5574C470.427 44.2368 471.521 44.0098 472.629 43.8787C474.974 47.6429 478.429 43.8787 481.515 43.8787C482.872 43.8787 484.415 41.904 485.587 44.434C486.82 44.1291 488.035 43.7583 489.228 43.3233L483.057 38.7569C487.359 39.3091 491.624 40.1126 495.831 41.1635C499.178 42.8942 502.82 43.9825 506.568 44.3723C505.245 43.6609 504.143 42.5999 503.381 41.3051C502.619 40.0102 502.228 38.5312 502.249 37.0291C503.486 35.2172 504.937 33.5599 506.568 32.0924C508.215 31.2754 510.037 30.8729 511.875 30.92C513.248 31.0442 514.598 31.3556 515.886 31.8456L513.911 34.6842L515.392 44.6809L516.812 45.1128L510.641 51.2836C511.697 51.5517 512.801 51.5709 513.865 51.3396C514.93 51.1083 515.926 50.6329 516.776 49.9509C517.626 49.2688 518.305 48.3988 518.761 47.4093C519.217 46.4198 519.437 45.3379 519.403 44.2489C521.44 44.2489 524.031 43.2616 524.217 46.9024C526.562 44.866 526.006 43.0764 523.168 42.8913H517.429C517.429 40.4847 516.935 38.0781 516.688 35.2395L520.761 32.5861V36.1035L524.34 36.6588L521.687 34.3756L526.006 34.931V34.1905L523.908 32.7712V32.0307C526.561 32.8329 529.153 33.6968 531.992 34.499C533.049 34.7491 534.121 34.9346 535.201 35.0544C535.229 34.7672 535.229 34.4777 535.201 34.1905C534.275 33.6968 533.288 33.3266 531.868 32.7095L530.943 29.6241L544.765 28.4517L542.729 26.2302C549.069 23.2118 556.092 21.9137 563.093 22.466C565.577 22.4034 568.044 22.0302 570.436 21.3553C570.436 21.3553 570.806 21.3552 570.991 21.0467C573.259 20.8114 575.406 19.9095 577.162 18.455C579.816 16.6037 582.839 14.3822 585.678 18.455C586.233 19.2572 587.961 19.1955 589.072 19.5657C592.788 19.2572 596.524 19.2572 600.241 19.5657C601.598 19.5657 602.586 22.1574 603.82 23.6384L588.27 29.1921V29.8092C589.257 29.8092 590.306 29.8092 591.355 29.8092C592.404 29.8092 594.008 29.8092 594.749 29.8092C598.266 27.1558 601.845 28.7602 605.424 29.1921C606.844 29.1921 608.448 28.3282 609.806 28.5751C611.501 28.9965 613.095 29.7518 614.495 30.7966C615.977 31.693 617.738 32.0063 619.438 31.6755C621.137 31.3448 622.653 30.3936 623.69 29.007C624.065 28.7265 624.495 28.5268 624.952 28.4206C625.409 28.3144 625.883 28.3039 626.343 28.39L636.834 30.0561C636.402 34.0671 636.834 37.461 641.832 37.5844L643.251 35.2395H659.851L658.123 32.401C662.178 31.5472 666.34 31.3183 670.465 31.7222C674.105 32.7095 678.795 31.7222 682.806 34.931C686.18 36.5594 689.944 37.2012 693.667 36.7822C697.369 36.7822 701.257 36.1035 703.91 40.1145C704.527 40.9784 706.811 40.855 708.292 40.9784C710.635 41.1018 712.983 41.1018 715.326 40.9784C717.033 40.7897 718.724 40.4804 720.386 40.0528C721.455 39.991 722.526 39.991 723.595 40.0528L724.274 41.1635L722.176 41.7806V42.4594L727.853 44.1872L727.298 39.8059C733.345 39.995 739.351 40.8854 745.193 42.4594C750.623 44.5574 756.856 45.1128 760.126 50.8517C761.916 48.3216 763.52 48.5685 770 52.6412C767.901 54.369 764.446 54.4924 763.829 57.763L757.102 55.6649C755.93 55.2946 754.819 54.801 753.647 54.369C752.759 54.1052 751.893 53.7751 751.055 53.3817C750.521 52.9213 750.063 52.3799 749.698 51.7773C749.455 52.4653 749.249 53.1656 749.08 53.8753C749.08 54.5541 749.08 54.4924 749.08 54.9244L742.91 57.0842C744.021 57.7769 744.913 58.7711 745.481 59.951C746.049 61.1309 746.27 62.4479 746.118 63.7486C737.726 62.2059 732.111 66.9574 726.002 70.9067C725.167 69.8796 723.963 69.2203 722.648 69.0703C721.333 68.9204 720.011 69.2917 718.967 70.1046C718.084 70.5266 717.097 70.6769 716.128 70.5365C711.562 70.1663 710.883 74.4241 707.921 76.7073L710.76 77.2627C710.76 79.1139 711.192 80.7183 711.439 82.5078C708.353 82.5078 707.366 84.174 709.155 86.9508C707.551 88.6169 702.985 87.3211 704.712 91.8257C699.591 91.0853 701.319 97.5029 697.246 98.5519C696.012 91.3938 692.001 84.4208 697.246 78.1883C703.859 74.5711 709.607 69.56 714.092 63.5018L713.537 62.6379C712.796 62.6379 711.5 63.1315 711.5 63.3166C711.5 65.7233 709.834 65.9701 708.23 66.6489C706.625 67.3277 704.527 70.9067 703.602 65.8467C701.528 65.6126 699.429 65.8015 697.431 66.402C695.797 67.2142 694.412 68.4503 693.42 69.9811C692.865 70.5982 693.05 71.8324 692.803 73.3134L684.904 74.3624L686.447 72.0175C682.782 72.6614 679.053 72.8685 675.339 72.6346C667.441 70.9684 662.998 76.0285 658.185 80.1629L651.273 86.3337C652.251 87.5686 653.346 88.7052 654.544 89.7276C655.443 90.038 656.421 90.038 657.321 89.7276C658.493 89.7276 659.974 88.0615 660.53 88.4318C661.085 88.802 663.677 90.9001 663.492 91.8875C662.257 97.2561 663.121 103.242 659.727 108.117C656.333 112.992 653.557 117.064 650.533 121.446C650.144 122.005 649.649 122.482 649.076 122.85C648.502 123.218 647.862 123.47 647.192 123.59C646.521 123.71 645.833 123.697 645.168 123.552C644.502 123.406 643.872 123.131 643.313 122.741C641.77 125.025 638.685 125.827 638.438 129.591C638.438 131.134 635.353 132.491 634.859 133.972C636.153 137.136 637.266 140.37 638.191 143.66C639.302 148.906 634.365 148.597 631.033 150.633C631.033 147.301 631.65 144.463 631.712 141.254C631.712 140.513 630.848 138.971 630.478 139.032C626.343 139.464 628.441 137.058 628.75 135.453C628.93 134.989 629.136 134.536 629.367 134.096C628.303 133.275 626.961 132.901 625.626 133.05C624.291 133.2 623.065 133.862 622.209 134.898L621.654 135.7L620.666 135.021L622.147 129.776C619 129.097 618.074 132.244 615.976 133.54C615.483 133.911 615.174 134.589 614.619 134.898C613.968 135.187 613.284 135.395 612.582 135.515L614.063 137.86C614.557 138.539 615.298 139.649 615.483 139.835H624.06L616.285 146.499C618.321 151.497 619.987 155.508 621.715 159.643L619.062 161.988L622.888 162.605C621.221 165.875 619.556 169.208 617.828 172.478C616.772 175.07 615.427 177.533 613.817 179.821C611.718 182.228 610.238 185.375 606.165 185.992C603.488 186.551 600.936 187.597 598.636 189.078C597.526 189.695 596.785 191.052 595.551 192.348L595.119 189.201C593.278 188.977 591.419 189.429 589.887 190.474C588.355 191.518 587.254 193.083 586.789 194.878C585.678 200.185 589.874 203.27 592.959 206.417L597.649 205.245L598.204 206.047C597.267 207.163 596.401 208.338 595.613 209.565C595.06 210.167 594.695 210.918 594.564 211.724C594.872 216.538 595.243 220.981 589.442 223.387C587.838 224.004 587.097 226.843 585.246 228.447V224.93L575.558 213.576C575.121 214.071 574.767 214.634 574.509 215.242C574.408 216.597 574.181 217.94 573.83 219.253C571.485 224.066 574.694 228.139 575.558 232.396C575.928 234.186 578.705 235.297 579.754 237.086C580.754 239.028 581.461 241.108 581.852 243.257C582.568 245.828 582.921 248.487 582.901 251.156C580.824 249.684 578.974 247.917 577.409 245.911C576.422 243.495 575.738 240.966 575.373 238.382C575.145 236.817 574.576 235.322 573.706 234.001C572.311 232.306 571.365 230.287 570.956 228.13C570.546 225.973 570.686 223.748 571.362 221.659C572.472 214.871 569.325 208.886 568.4 202.098C566.116 204.011 565.499 207.343 561.735 205.368C564.08 200.123 561.056 195.989 558.094 191.731C557.22 190.024 556.617 188.192 556.305 186.301C553.651 186.856 551.06 187.288 548.653 187.905C547.727 187.905 546.37 188.769 546.246 189.386C545.321 194.384 540.508 196.359 538.101 200.123C536.496 202.592 533.843 204.381 531.93 206.788C531.244 208.337 531.009 210.048 531.251 211.724C531.659 218.46 529.448 225.093 525.081 230.237C522.056 223.304 519.721 216.09 518.108 208.701C516.256 201.419 515.269 193.891 514.035 187.473L511.443 190.682L506.198 186.239L508.419 185.375C505.766 182.475 503.298 179.204 500.521 176.489C496.263 176.489 491.511 176.489 486.76 176.489C482.008 176.489 481.762 175.687 480.157 171.614C479.142 172.146 478.031 172.471 476.889 172.569C475.748 172.668 474.598 172.538 473.507 172.188C472.415 171.837 471.405 171.273 470.534 170.529C469.663 169.784 468.948 168.873 468.433 167.85C468.231 167.476 468.066 167.083 467.939 166.677C467.939 166.06 467.445 165.443 467.137 164.826C464.915 160.568 464.236 160.445 460.966 163.962L466.828 176.304L468.124 173.095C468.556 174.885 468.741 175.749 468.865 176.427C468.988 177.106 469.297 178.834 469.482 180.068C471.456 179.698 473.801 181.487 475.282 178.525C476.413 176.754 477.693 175.082 479.108 173.527C479.108 175.046 479.294 176.559 479.663 178.032C479.99 179.206 480.766 180.203 481.823 180.809C487.068 183.462 487.994 186.979 483.921 191.361C483.252 192.168 482.692 193.06 482.255 194.014C481.762 194.816 481.33 195.742 480.712 196.606C478.574 199.202 475.901 201.307 472.876 202.777C469.543 204.751 466.705 207.652 463.558 209.75C460.47 211.638 457.276 213.348 453.993 214.871C452.203 215.797 451.34 214.871 450.969 213.082C450.777 207.364 449.323 201.758 446.711 196.668C445.473 195.047 444.359 193.335 443.379 191.546C442.723 189.915 442.166 188.246 441.713 186.547C440.849 184.264 439.924 182.043 439.06 179.821C438.196 177.6 436.591 174.329 435.295 171.614C434.493 170.01 433.506 168.467 432.827 167.295L427.829 168.776L427.52 167.788L430.174 165.814L424.929 160.383C425.546 159.951 426.78 158.594 428.076 158.532C431.408 158.532 432.395 156.496 433.012 153.842L436.036 140.452L430.421 143.105C430.421 143.105 430.421 143.105 430.05 143.105C427.829 142.55 424.558 140.822 423.571 141.686C420.486 144.401 418.943 141.254 417.4 140.452C415.857 139.649 415.179 137.428 414.191 135.947L414.623 129.776C412.402 128.48 412.463 128.542 409.872 130.887C409.316 131.381 407.897 130.887 406.416 130.887C407.41 132.266 408.278 133.733 409.008 135.268C409.498 136.241 409.629 137.355 409.378 138.415C408.639 140.076 407.751 141.667 406.725 143.167C404.38 137.922 399.628 133.725 399.567 126.999C399.567 125.518 397.468 123.667 395.864 122.68C393.272 121.137 390.495 120.088 389.693 116.509C389.693 116.509 388.459 116.509 388.089 115.83C387.61 115.171 387.236 114.443 386.978 113.67C383.646 114.534 383.152 116.139 385.559 119.101C386.608 120.273 387.163 121.754 388.212 123.05C388.786 123.898 389.573 124.579 390.495 125.025C393.643 125.703 395.124 128.604 397.53 130.27C397.53 130.27 397.53 130.887 397.839 131.566L393.704 129.776L394.877 133.972L392.223 137.428C393.766 131.627 389.632 129.714 386.052 127.061C383.956 125.239 382.091 123.166 380.499 120.89C379.45 119.718 378.524 118.484 377.598 117.249C376.222 118.04 374.902 118.927 373.649 119.903C373.017 120.64 372.149 121.136 371.192 121.305C370.236 121.473 369.25 121.305 368.404 120.828C366.429 120.026 364.27 119.841 364.455 123.42C364.455 124.593 362.912 125.889 361.986 126.999C360.409 128.533 358.925 130.161 357.543 131.874C357.05 132.553 357.543 133.911 357.543 135.762C355.816 140.575 350.447 141.377 345.202 142.673L343.042 139.835L339.401 140.266C335.76 134.096 340.821 127.925 337.797 121.754C343.042 118.484 348.719 121.075 354.273 120.643C354.643 117.558 356.926 114.473 354.273 111.325C352.072 109.198 350.011 106.93 348.102 104.538H354.705L354.335 101.452C355.645 102.067 357.145 102.139 358.508 101.654C359.872 101.169 360.989 100.165 361.616 98.8605C361.616 98.8605 362.912 97.8114 363.529 97.1944L369.33 91.4555L376.796 88.4318C376.858 87.3837 376.858 86.3328 376.796 85.2847C374.636 81.1503 374.575 81.212 379.635 78.4351Z" fill="#191B1D"/>
<path d="M89.1063 120.704H92.994C91.5936 117.839 89.139 115.628 86.1444 114.533C81.6436 112.249 78.2277 108.279 76.6413 103.487C76.1476 102.315 74.2964 101.698 73.2473 100.895L72.3834 103.302C71.0258 100.217 67.1382 98.9824 70.1619 95.28C70.1619 95.28 68.1873 92.1329 67.5085 92.2563C66.043 92.3718 64.5691 92.1969 63.1713 91.7416C61.7735 91.2862 60.4793 90.5594 59.363 89.6028C57.6936 88.7961 55.9323 88.1952 54.1179 87.8133L41.4061 85.5301L41.838 87.4431L33.0138 89.7262L33.6926 85.0981L28.4474 89.4177C29.4347 91.4541 21.0424 98.5505 15.7972 99.9698L17.5868 101.636V102.685C13.5141 99.1059 10.1818 102.685 6.23247 102.685L11.8479 99.7229C13.9884 98.8224 16.0522 97.7493 18.0187 96.5141C19.738 94.9298 21.2889 93.1721 22.6468 91.2689H12.5267L11.7862 87.1345C6.29424 91.0838 6.54104 84.5428 3.94931 83.432C5.36859 77.8783 10.4903 78.6188 14.4396 77.2612L13.7609 74.2376C7.59005 74.7929 6.47934 76.5825 0 71.5841C1.41928 71.1522 2.65347 70.7819 3.88763 70.2883C5.12179 69.7946 6.29425 69.0541 7.46671 68.4987C9.62648 71.0905 11.3542 71.2756 14.4396 69.1158L1.5427 63.994C3.45565 63.2535 4.62815 62.8833 5.73889 62.3279C6.84963 61.7725 8.5774 60.7235 10.1201 60.1681C13.0204 58.934 15.9206 57.8232 18.8826 56.8359C23.7028 55.7135 28.7378 55.9269 33.4457 57.453C37.3051 58.1217 41.1987 58.575 45.1085 58.8106C51.1347 59.1643 57.0887 60.3053 62.8188 62.2045C64.1355 62.5144 65.4783 62.7004 66.8297 62.7599C66.8297 58.1318 70.3471 61.8342 71.9515 60.5384C73.9955 59.4581 76.3207 59.0275 78.616 59.3042L71.3962 62.2045L71.8897 63.1918L82.4418 58.3169L86.1444 61.5874L88.7361 59.4894L90.1553 61.8342C91.8215 58.9957 94.1664 59.9213 96.6347 60.5384C99.103 61.1555 103.361 61.7726 106.755 62.3896C107.866 62.3896 108.853 63.0067 110.396 63.4387L108.236 65.1048V65.9687C110.894 65.5996 113.574 65.414 116.258 65.4133C118.628 65.8411 120.96 66.4602 123.231 67.2645L122.861 64.6111C125.514 64.6111 127.797 64.6111 130.08 64.6111C134.462 64.6111 138.72 66.8326 143.224 64.0557C144.15 63.5621 146.371 65.2899 148.531 66.1538L152.419 63.0067L146.556 58.5637C146.063 56.2805 147.173 54.3676 150.197 54.1207C153.221 53.8739 155.751 57.6998 155.442 60.2915L159.207 60.9086L158.775 64.7345L162.045 60.9086L165.501 68.2519L171.116 60.4149L177.287 61.464V67.2645L178.028 68.1902L172.35 69.4243L174.202 72.3246L168.031 68.7456C168.771 71.8927 167.229 72.5097 165.254 72.3246C163.376 71.846 161.452 71.577 159.515 71.5224L167.229 73.8056L161.552 76.3973C160.712 76.7584 159.94 77.2592 159.268 77.8783C156.368 81.5191 150.506 82.8766 150.814 88.8623C150.844 89.3811 150.986 89.8872 151.232 90.3455C151.477 90.8037 151.819 91.203 152.234 91.5158C155.134 92.1946 155.319 94.1692 155.134 96.761C158.898 94.7246 161.305 96.761 164.76 98.4888C168.467 100.194 172.281 101.657 176.176 102.87C176.176 105.277 176.176 109.041 179.508 111.201C180.187 111.633 181.421 112.496 181.607 112.311C181.792 112.126 183.766 110.275 183.766 109.288C183.474 107.188 182.978 105.121 182.285 103.117C184.26 101.389 187.531 99.9698 187.901 97.8717C188.271 95.7737 186.05 93.1819 184.754 90.4667C187.962 88.1835 184.754 84.6662 185.124 81.1488C191.254 80.2882 197.478 81.8608 202.464 85.5301C202.197 86.0833 202.044 86.6846 202.014 87.2982C201.985 87.9118 202.08 88.525 202.293 89.1012C202.506 89.6773 202.833 90.2045 203.255 90.6512C203.677 91.0979 204.184 91.455 204.747 91.7009C205.115 91.8888 205.511 92.014 205.919 92.0712C210.116 93.1202 210.548 88.8006 212.09 86.3323C213.88 88.9858 215.793 91.1455 217.335 93.6139C218.199 95.0949 217.829 97.5632 218.94 98.6122C221.255 100.37 223.735 101.899 226.345 103.179L224.37 104.474C225.903 104.595 227.404 104.971 228.813 105.585C229.317 105.945 229.742 106.404 230.06 106.935C230.379 107.466 230.584 108.057 230.664 108.671C230.581 109.186 230.383 109.675 230.084 110.103C229.784 110.53 229.392 110.885 228.937 111.139C224.201 114.484 218.412 115.997 212.646 115.397C208.511 114.471 205.734 118.174 202.896 120.889C204.564 120.08 206.274 119.359 208.018 118.729C209.35 118.413 210.725 118.308 212.09 118.42C212.399 118.42 212.954 120.21 212.769 120.457C210.116 122.863 211.041 124.838 213.51 126.628C215.978 128.417 217.829 128.726 220.051 125.517C220.163 125.283 220.338 125.085 220.556 124.943C220.773 124.802 221.025 124.723 221.285 124.715L220.483 127.553L221.964 126.689L222.519 127.615L210.548 133.786H209.684L212.152 128.541C208.265 130.248 204.493 132.206 200.859 134.403C199.934 135.02 200.366 137.612 200.181 139.278L201.168 139.771C200.052 140.083 198.919 140.331 197.774 140.512C194.874 140.512 193.208 141.314 192.837 144.77C192.837 146.683 190.924 148.472 189.629 150.941L188.333 145.942C188.127 147.994 188.127 150.061 188.333 152.113C189.69 158.284 189.382 159.086 184.137 162.048C181.051 163.838 177.41 169.268 177.966 171.613C178.521 173.958 179.879 177.784 180.619 181.239C180.732 183.014 180.629 184.796 180.311 186.546H178.645L173.399 172.785L170.437 174.081C167.846 169.638 164.267 172.477 160.811 172.292L162.23 175.5C159.207 174.883 156.8 174.513 154.332 173.896C151.863 173.279 151.185 173.341 150.074 175.253C149.518 176.179 148.284 176.673 147.42 177.413C146.556 178.154 145.446 178.894 145.384 179.696C145.384 185.497 145.384 191.298 145.384 197.098C145.568 199.011 146.296 200.831 147.482 202.343C148.654 203.763 150.753 205.614 152.172 205.429C154.764 204.935 158.343 205.429 159.207 201.294C160.07 197.16 161.551 195.987 166.735 196.79L163.094 212.587C164.779 212.711 166.47 212.711 168.154 212.587C172.597 212.031 174.325 214.006 173.77 218.326C173.214 222.645 172.104 229.248 178.274 232.519C183.273 230.05 183.211 230.112 187.284 234.308C188.39 235.197 189.59 235.962 190.863 236.591C192.035 229.618 197.898 227.829 203.204 224.682C202.772 227.582 201.045 230.235 202.772 232.95L205.426 225.977L212.769 229.495C215.255 230.305 217.935 230.305 220.421 229.495C222.889 229.001 224.185 231.655 225.975 232.889C226.592 233.424 227.151 234.024 227.641 234.678C228.661 235.915 229.798 237.052 231.035 238.072C232.562 239.375 234.383 240.286 236.342 240.726C242.821 241.096 245.968 242.824 247.511 249.118C248.09 251.671 249.467 253.974 251.441 255.693C253.416 257.413 255.886 258.46 258.495 258.683C260.778 259.238 261.827 259.917 261.395 262.077C266.64 262.077 271.947 261.028 275.711 266.088C276.082 266.52 276.637 267.075 277.069 267.075C277.842 267.106 278.601 267.292 279.301 267.621C280.001 267.95 280.628 268.415 281.146 268.99C281.663 269.565 282.06 270.238 282.314 270.969C282.568 271.7 282.673 272.474 282.623 273.246V273.678C282.623 276.269 280.154 279.108 278.55 281.515C276.945 283.921 275.156 285.772 273.49 287.685C273.397 288.133 273.397 288.595 273.49 289.043C273.229 293.179 272.756 297.298 272.07 301.385C271.111 304.337 269.784 307.156 268.121 309.777C267.641 310.393 266.967 310.828 266.208 311.011C262.999 312.245 259.605 313.171 256.52 314.652C255.27 315.228 254.22 316.164 253.506 317.34C252.791 318.517 252.444 319.88 252.509 321.255C251.827 324.281 250.66 327.178 249.053 329.832C248.621 330.881 248.066 331.868 247.326 333.349L246.77 330.017C243.376 336.743 240.599 344.21 231.158 337.916C232.331 340.076 233.256 341.495 233.997 342.976C234.543 343.911 234.7 345.023 234.435 346.074C234.169 347.124 233.502 348.028 232.577 348.591C232.106 348.83 231.609 349.016 231.096 349.147C228.628 349.825 225.975 350.134 223.321 350.628C223.321 355.441 222.581 356.305 217.15 354.639C219.804 360.809 216.41 364.574 211.411 367.412C212.098 368.152 212.864 368.814 213.695 369.387C216.348 370.868 216.348 371.3 213.695 373.398C211.041 375.496 209.56 376.483 209.19 378.396C208.882 380.913 209.496 383.455 210.918 385.554C211.967 387.159 214.435 387.837 216.657 389.195C213.224 390.014 209.687 390.305 206.166 390.059C202.588 389.074 199.345 387.133 196.787 384.444C195.346 382.125 194.557 379.46 194.504 376.73C194.01 374.015 193.64 371.238 197.095 369.757H194.504L197.465 362.229H198.144L198.7 365.314H199.132L200.489 357.415C197.28 357.045 197.28 355.132 198.391 352.849C198.391 352.417 199.193 351.923 199.07 351.738C196.848 346.802 201.291 343.408 201.908 339.397C202.526 335.386 202.772 331.19 203.328 327.055C204.068 321.81 204.994 316.565 205.611 311.134C206.167 308.095 206.167 304.98 205.611 301.94C205.241 300.776 204.626 299.705 203.806 298.8C202.986 297.895 201.981 297.177 200.859 296.695C194.072 294.288 192.22 288.117 189.567 282.749C188.078 278.229 185.731 274.039 182.656 270.407C181.951 269.691 181.556 268.727 181.556 267.723C181.556 266.718 181.951 265.754 182.656 265.039C183.435 264.251 184.099 263.358 184.63 262.385C182.162 261.583 181.483 259.917 182.656 257.819C184.178 254.97 185.954 252.265 187.963 249.735C188.66 249.112 189.206 248.339 189.561 247.474C189.916 246.608 190.069 245.674 190.01 244.741C189.95 243.808 189.679 242.9 189.218 242.087C188.756 241.274 188.116 240.576 187.345 240.047C186.113 238.595 185.133 236.948 184.445 235.172L183.149 232.704H182.1L180.187 237.579L178.274 236.159C177.659 235.619 176.947 235.2 176.176 234.925C174.695 234.555 173.214 234.555 173.276 232.457C169.82 231.531 169.512 228.446 168.339 225.792C167.725 224.329 166.753 223.042 165.514 222.051C164.274 221.059 162.806 220.393 161.243 220.115C158.357 219.274 155.878 217.409 154.27 214.87C152.789 213.142 151.37 211.97 149.025 213.698C148.482 213.943 147.893 214.07 147.297 214.07C146.701 214.07 146.112 213.943 145.569 213.698C140.509 210.797 135.511 207.527 130.698 204.565C130.16 204.159 129.72 203.638 129.41 203.04C129.101 202.442 128.929 201.782 128.908 201.109C129.187 199.48 129.099 197.81 128.651 196.219C128.203 194.628 127.405 193.158 126.316 191.915C123.848 188.397 121.071 185.003 118.911 181.424C116.752 177.845 115.517 174.822 113.604 171.674C112.926 170.564 111.445 169.947 110.272 169.021L109.285 169.761C110.334 171.983 111.445 174.204 112.555 176.488L118.726 188.089C119.158 188.953 119.714 189.693 120.084 190.557C120.454 191.421 120.886 192.717 121.318 193.828L119.899 194.445C118.558 191.311 116.991 188.279 115.209 185.374C113.913 183.874 112.394 182.584 110.704 181.548C110.704 179.511 111.383 177.907 110.704 177.475C107.901 173.961 105.806 169.938 104.533 165.627C104.04 164.701 103.237 163.406 102.312 163.159C97.0666 161.863 96.141 156.988 94.1047 153.224C93.0037 151.66 92.1117 149.959 91.4513 148.164C90.1391 143.658 89.8025 138.925 90.4639 134.279C90.4253 129.722 89.9708 125.178 89.1063 120.704Z" fill="#191B1D"/>
<path d="M399.86 339.336C398.719 338.802 397.782 337.911 397.192 336.798C396.602 335.684 396.391 334.409 396.59 333.165C396.461 330.248 395.225 327.49 393.134 325.452C390.241 322.121 388.7 317.828 388.815 313.418C388.339 309.209 386.788 305.192 384.31 301.756C383.034 299.184 382.487 296.312 382.726 293.452C382.965 290.591 383.982 287.851 385.668 285.527C386.778 283.243 387.766 281.639 386.1 279.356C385.721 278.77 385.547 278.076 385.606 277.381C385.794 274.846 385.459 272.3 384.62 269.901C383.781 267.501 382.457 265.3 380.731 263.435C378.983 261.696 377.796 259.473 377.323 257.054C376.851 254.634 377.113 252.128 378.077 249.859C378.399 248.156 378.069 246.394 377.152 244.923C376.697 244.444 376.136 244.077 375.515 243.852C374.894 243.628 374.229 243.55 373.573 243.627C370.981 243.627 369.315 243.627 368.328 240.973C367.34 238.32 364.131 238.999 361.848 239.492C359.565 239.986 357.344 241.158 355.06 241.899C353.987 242.158 352.892 242.323 351.79 242.393C348.889 242.402 345.996 242.691 343.151 243.257C342.288 243.621 341.341 243.74 340.415 243.598C339.488 243.457 338.62 243.06 337.906 242.454C335.121 240.419 332.481 238.193 330.007 235.79C327.746 233.04 325.684 230.132 323.836 227.089C323.404 226.534 322.602 226.163 322.108 225.546C321.615 224.929 320.812 224.127 320.812 223.387C320.359 219.848 320.653 216.253 321.676 212.835C322.694 210.257 322.694 207.39 321.676 204.812C319.455 201.419 321.676 199.382 322.849 196.976C324.515 193.582 326.49 190.373 328.464 187.164C328.967 186.451 329.713 185.946 330.562 185.745C333.895 184.696 336.178 183.091 336.116 179.019C336.138 177.733 336.512 176.478 337.198 175.39C337.883 174.302 338.854 173.423 340.004 172.848C342.013 171.261 343.779 169.39 345.249 167.294C349.013 170.318 353.147 168.837 357.22 167.294C359.834 166.237 362.571 165.511 365.366 165.134C369.297 164.652 373.253 164.384 377.214 164.332C378.752 164.386 380.282 164.592 381.78 164.949C380.978 167.294 380.176 169.515 379.312 172.169C381.163 175.625 385.482 173.835 388.876 175.254C389.247 175.254 390.049 175.254 390.049 175.254C390.851 179.265 394.924 178.278 397.269 180.006C399.614 181.734 400.354 180.376 400.539 178.093C400.571 177.078 400.992 176.114 401.716 175.401C402.44 174.689 403.411 174.282 404.427 174.267C405.115 174.32 405.786 174.509 406.401 174.822C409.821 176.247 413.325 177.463 416.892 178.463C418.726 178.773 420.608 178.646 422.384 178.093C424.729 177.414 426.457 177.167 427.444 180.191C428.813 184.272 430.42 188.269 432.257 192.162C433.738 195.309 436.638 198.333 436.947 201.295C438.224 205.937 440.047 210.411 442.377 214.624C442.93 215.949 443.749 217.146 444.784 218.141C446.635 219.993 448.795 221.535 450.461 223.572C451.325 224.621 451.201 226.472 452.004 227.768C452.287 228.151 452.661 228.458 453.091 228.663C453.522 228.867 453.996 228.963 454.472 228.94C458.977 227.953 463.42 226.719 468.418 225.423C468.303 227.674 467.867 229.898 467.122 232.026C464.056 239.344 459.471 245.927 453.67 251.34C449.021 256.073 444.997 261.382 441.698 267.137C441.328 267.631 441.205 268.865 441.698 269.05C444.105 271.025 442.562 273.617 442.994 275.9C443.426 278.183 444.722 279.788 445.031 282.071C445.747 285.06 445.914 288.155 445.524 291.204C445.092 293.178 442.871 294.968 441.205 296.449C438.613 298.855 435.96 301.015 433.368 303.36C432.936 303.669 433.059 304.779 433.368 305.458C433.676 306.137 434.232 307.865 434.602 309.037C435.109 310.339 435.083 311.788 434.528 313.071C433.974 314.353 432.936 315.365 431.64 315.887C430.529 316.442 429.48 317.121 428.987 317.368C428.987 319.589 429.357 321.502 428.616 322.613C425.548 329.442 420.017 334.863 413.128 337.793C410.011 338.366 406.854 338.696 403.686 338.78C402.394 338.814 401.109 339.001 399.86 339.336Z" fill="#191B1D"/>
<path d="M235.487 62.7608L231.784 59.7988L239.991 55.6027V52.147L233.142 49.5553V48.5063L240.3 49.4936L234.869 45.9762C231.537 47.9509 230.488 47.1487 230.365 42.1503H232.71C231.229 39.9905 229.995 37.8925 228.452 35.9795C226.626 33.2864 223.996 31.2394 220.937 30.1311C217.878 29.0228 214.547 28.91 211.42 29.8087C210.163 30.2921 208.816 30.5025 207.471 30.4258C206.052 30.4258 203.522 31.7217 203.337 28.3278C203.337 27.8958 200.683 27.5873 199.079 27.2787V26.0445L205.99 25.6743L194.266 22.3421C195.103 21.7853 195.991 21.3101 196.919 20.9228C200.313 20.3674 203.769 20.0589 207.163 19.3801C209.199 19.0099 211.729 18.9482 211.729 15.6159H206.792V14.4435L218.147 11.4815V9.38341C218.147 9.38341 218.64 9.38341 218.825 9.38341C222.096 10.5559 224.996 8.08753 227.897 8.02583C228.809 7.9832 229.72 8.14376 230.563 8.49591C231.406 8.84807 232.16 9.38305 232.771 10.0622C233.635 10.8027 235.425 7.22365 237.77 9.26001C238.202 9.63026 239.312 9.26001 240.361 9.26001L239.066 6.9768L250.914 10.0005V8.95146C249.917 8.88008 248.938 8.65096 248.013 8.27266C247.678 8.12929 247.38 7.90959 247.145 7.63107C246.909 7.35254 246.742 7.02285 246.656 6.66824C246.656 6.23629 247.581 5.37242 248.137 5.31071C251.099 5.31071 254.308 5.31067 257.146 4.69359C259.187 4.32995 261.248 4.08275 263.317 3.95313C271.647 3.95312 279.978 3.95313 288.309 4.63192C292.097 5.2345 295.817 6.20584 299.416 7.53215L290.468 9.01318V10.4324H292.937C294.406 10.3595 295.869 10.1947 297.318 9.93881L295.59 12.7774C299.406 12.2962 303.18 11.533 306.883 10.4942C308.927 9.72038 311.113 9.39168 313.294 9.53001C315.476 9.66835 317.603 10.2705 319.533 11.2963C312.313 14.752 304.538 16.9735 299.91 23.6379C301.565 23.513 303.229 23.6378 304.846 24.0082C305.895 24.4402 306.389 26.1063 307.315 27.5256H302.316C302.316 29.5619 307.253 30.9195 303.304 33.6964L305.525 36.0412L300.403 36.7818L302.748 39.4352H294.85C293.307 41.4716 293.615 43.076 296.577 44.2484C297.21 44.4264 297.801 44.7272 298.317 45.1338C298.833 45.5403 299.263 46.0445 299.584 46.6176C299.905 47.1907 300.11 47.8214 300.187 48.4737C300.264 49.126 300.212 49.7871 300.033 50.4192L293.122 47.5807L290.777 50.4192L299.478 51.2831C293.628 55.2852 286.934 57.8827 279.916 58.8732C278.744 58.8732 277.325 60.3542 276.522 61.465C275.314 63.6057 273.493 65.3368 271.295 66.4362C269.096 67.5356 266.619 67.9533 264.181 67.6357C263.44 67.6357 261.774 69.4253 261.774 70.2892C261.995 71.6198 261.8 72.9862 261.214 74.2013C260.629 75.4165 259.682 76.4209 258.504 77.0771C258.133 77.0771 257.948 77.8793 257.825 78.3729C257.269 80.8412 256.529 83.3713 256.097 85.9013C255.665 88.4313 254.246 87.8142 252.703 87.1354C250.586 86.3974 248.524 85.5108 246.532 84.482C245.188 83.7338 244.061 82.6494 243.262 81.3349C240.423 76.028 237.77 70.7828 235.24 65.5377C235.145 64.6048 235.229 63.6625 235.487 62.7608Z" fill="#191B1D"/>
<path d="M668.676 288.365C669.851 289.211 670.892 290.23 671.761 291.388C672.737 292.769 673.314 294.391 673.427 296.078C673.427 299.966 676.081 301.385 678.364 303.298C678.799 303.619 679.193 303.992 679.536 304.409C680.376 306.333 681.693 308.01 683.362 309.284C686 311.722 687.957 314.806 689.039 318.231C689.921 320.6 690.247 323.14 689.99 325.655C689.733 328.169 688.901 330.591 687.558 332.733C685.046 336.508 683.19 340.681 682.067 345.074C679.2 346.954 675.867 348.001 672.44 348.098L670.651 347.111C669.826 347.628 668.907 347.977 667.946 348.136C666.986 348.296 666.003 348.262 665.056 348.038C664.108 347.814 663.215 347.404 662.427 346.832C661.64 346.259 660.974 345.536 660.469 344.704C660.161 344.222 659.912 343.704 659.728 343.161C658.76 341.432 657.601 339.818 656.272 338.348L655.038 339.212L656.026 334.09L651.336 339.397C649.917 336.99 649.053 334.09 647.14 332.856C644.682 331.479 641.858 330.897 639.056 331.19C635.22 331.511 631.475 332.536 628.01 334.214C625.659 335.966 622.797 336.898 619.865 336.867C617.649 336.904 615.497 337.614 613.694 338.903C612.759 339.562 611.617 339.856 610.48 339.731C609.344 339.606 608.292 339.07 607.523 338.225C607.036 337.431 606.839 336.493 606.968 335.571C606.968 334.09 607.894 332.424 607.585 331.066C606.735 328.114 605.725 325.209 604.561 322.366C604.006 320.885 602.895 319.404 604.561 317.799C604.561 317.799 604.068 316.442 603.944 315.701C603.944 313.295 602.525 310.209 603.636 308.667C604.746 307.124 608.264 305.89 610.67 304.47C614.126 302.496 619.618 303.977 621.161 298.732C621.161 297.929 621.161 297.127 621.654 296.387L623.012 294.535L624.246 295.523C625.982 293.327 627.88 291.265 629.923 289.352C632.268 287.254 633.687 288.55 634.551 292.19C635.763 290.366 637.082 288.614 638.501 286.945C639.902 285.826 641.388 284.815 642.944 283.922C643.484 283.432 643.979 282.895 644.425 282.317L653.434 284.477C649.978 289.784 649.978 289.784 655.224 293.671L658.185 295.708L661.95 298.053L663.554 289.043C664.048 286.267 664.48 283.305 664.912 280.404H666.084L668.676 288.365Z" fill="#191B1D"/>
<path d="M188.703 55.9722C189.073 52.0229 185.309 52.1463 183.458 50.2334C182.532 52.3315 181.977 54.5529 179.385 52.208C178.892 51.7761 177.657 52.208 176.794 52.208C172.536 51.7761 168.34 51.3441 164.452 50.727C163.588 50.727 162.909 49.8014 161.799 49.1843L165.563 47.9502C161.984 47.2714 158.96 47.0863 160.503 43.0752C161.122 41.2684 162.426 39.7772 164.134 38.923C165.843 38.0689 167.818 37.9201 169.635 38.5089C168.895 40.1133 167.476 41.8411 167.599 43.3221C167.722 44.8031 169.389 46.4692 170.499 47.8885C169.389 40.6069 169.944 39.3111 175.189 38.6323C177.781 38.262 179.077 39.8048 179.324 44.3094C181.469 43.0359 183.951 42.4425 186.44 42.6078C188.93 42.773 191.311 43.689 193.27 45.235C194.354 45.7455 195.528 46.039 196.725 46.0989H197.774C200.146 47.1623 202.435 48.3999 204.624 49.8014C206.224 51.2995 207.671 52.9532 208.943 54.738L205.858 55.2934L205.426 56.0956L219.31 63.5623L214.065 70.2268L207.154 64.056L205.796 67.3265C208.45 69.7331 213.263 71.5226 211.967 77.57L208.018 77.1997L209.746 81.2725C204.871 79.2361 200.057 79.1127 196.972 74.7315C196.072 73.552 194.835 72.6729 193.425 72.2103C192.015 71.7476 190.498 71.723 189.073 72.1397C187.752 72.1511 186.438 71.9425 185.186 71.5226C185.186 70.4119 185.556 69.3629 185.865 68.3138C185.982 67.6332 186.233 66.9828 186.605 66.4008C187.166 65.5489 187.929 64.8493 188.827 64.3645C189.197 64.3645 190.061 65.105 190.678 65.5369L188.395 68.4989L193.393 67.9435V67.0796L191.727 66.5243C192.529 63.8708 197.466 63.6857 195.738 59.8598C195.223 58.4783 194.231 57.3268 192.94 56.6136C191.65 55.9005 190.147 55.673 188.703 55.9722Z" fill="#191B1D"/>
<path d="M166.501 12.9002C163.292 14.7514 160.33 11.6043 156.812 9.01259C161.705 8.147 166.656 7.6519 171.622 7.53156C176.101 7.4071 180.534 6.59543 184.766 5.12496C188.062 4.66147 191.406 4.66147 194.701 5.12496C200.872 5.12496 207.043 5.49524 213.214 5.92719C215.13 6.32943 216.993 6.95055 218.767 7.7784C217.471 8.45719 216.361 9.136 215.25 9.62966C210.005 11.9129 204.636 14.196 199.144 16.3558C198.024 16.8624 196.841 17.2153 195.627 17.4049C194.177 17.4981 192.806 18.1001 191.756 19.1047C190.706 20.1094 190.045 21.4523 189.888 22.8969L182.298 26.044L185.568 27.9569C182.73 28.3889 180.508 30.9806 177.855 27.9569C177.855 27.9569 176.559 27.9569 175.88 27.9569C170.639 28.9884 165.228 28.777 160.083 27.3399L165.328 25.7972L164.711 24.0693L169.463 24.4396L169.771 23.6373L165.637 21.6627C168.105 17.8368 171.808 21.1073 174.646 20.3051L167.241 15.8622L168.167 15.1217C172.61 16.8495 176.682 14.196 181.311 14.1343C176.806 11.1723 171.807 15.1217 166.501 12.9002Z" fill="#191B1D"/>
<path d="M103.989 51.0355L113.554 50.4185V49.8014C111.579 49.8014 109.605 49.3694 107.383 49.3077C105.162 49.246 103.496 49.3077 101.583 49.3077V48.197L105.532 46.716L100.102 45.3584C101.953 40.9771 105.84 40.4218 110.16 39.8047V42.1496H111.271C113.06 40.4218 114.603 41.0388 116.269 42.4581C117.935 43.8774 118.614 39.8664 120.28 41.9645C121.218 43.2735 122.365 44.42 123.674 45.3584L122.44 39.8664H127.438C128.227 42.6346 129.412 45.2741 130.956 47.7033C132.56 49.678 135.46 50.5419 137.558 52.5782L134.35 52.8868L135.769 55.4785C133.91 55.787 132.012 55.787 130.153 55.4785C126.156 54.5593 121.967 54.9934 118.244 56.7127C116.084 57.3297 112.998 58.5022 111.332 54.9848C111.332 54.4912 109.913 54.4912 109.234 54.306L103.681 52.7016L103.989 51.0355Z" fill="#191B1D"/>
<path d="M677.75 269.975L675.097 271.827L682.996 280.095C681.241 280.051 679.523 279.585 677.987 278.737C676.451 277.888 675.142 276.682 674.171 275.22C673.817 274.395 673.155 273.74 672.325 273.394C671.496 273.049 670.564 273.04 669.728 273.369C669.266 273.57 668.851 273.866 668.51 274.238C668.17 274.61 667.912 275.05 667.754 275.529C667.489 276.247 666.952 276.832 666.258 277.156C665.565 277.479 664.771 277.516 664.051 277.257C663.669 277.111 663.315 276.903 663.002 276.64C660.904 274.171 658.621 274.233 655.165 275.344L658.004 271.395C657.768 270.12 657.163 268.943 656.263 268.011C655.363 267.078 654.209 266.431 652.944 266.149C650.444 265.567 647.99 264.804 645.601 263.866C644.86 263.558 644.428 262.385 643.749 261.521L646.341 260.287L639.738 257.14C641.124 256.589 642.547 256.135 643.996 255.782C644.373 255.657 644.771 255.606 645.167 255.635C645.563 255.663 645.95 255.769 646.305 255.946C646.661 256.124 646.978 256.37 647.238 256.67C647.498 256.97 647.697 257.318 647.822 257.695C647.822 257.695 647.822 258.066 647.822 258.189C648.255 259.785 648.791 261.352 649.426 262.879H650.537C650.987 262.083 651.548 261.356 652.203 260.719C654.24 258.93 655.967 257.325 659.176 259.793C662.385 262.262 665.347 261.583 668.432 263.126C671.708 265.169 674.823 267.459 677.75 269.975Z" fill="#191B1D"/>
<path d="M593.939 249.613L597.209 250.724L611.155 237.58L615.289 241.715C611.217 245.602 611.032 248.255 614.857 252.267C612.946 253.654 611.448 255.536 610.524 257.71C609.6 259.884 609.285 262.269 609.612 264.608L596.407 262.016C595.851 257.759 592.272 254.365 593.939 249.613Z" fill="#191B1D"/>
<path d="M453.131 293.672C460.043 293.981 460.413 287.501 464.239 284.848C465.313 285.817 466.013 287.132 466.216 288.565C466.419 289.997 466.112 291.455 465.349 292.685C465.126 293.191 465 293.736 464.979 294.289C463.128 300.892 461.4 307.433 459.364 314.036C459.204 314.515 458.95 314.958 458.618 315.339C458.286 315.72 457.881 316.032 457.428 316.256C456.975 316.479 456.482 316.611 455.977 316.643C455.473 316.675 454.967 316.607 454.489 316.442C453.991 316.259 453.532 315.987 453.131 315.64C452.134 314.315 451.502 312.752 451.296 311.106C451.09 309.461 451.319 307.79 451.959 306.26C452.677 304.282 453.053 302.195 453.07 300.09C453.255 297.992 453.131 295.955 453.131 293.672Z" fill="#191B1D"/>
<path d="M350.14 97.3166L347.301 96.4527V92.3182C347.301 91.8246 348.042 91.0223 348.165 91.084C349.893 91.8245 350.757 90.5904 350.572 89.4179C350.386 88.2455 348.659 87.6901 347.61 86.8262C346.561 85.9623 346.931 86.8262 346.375 86.8262L346.807 84.6664C343.784 81.8278 342.611 79.7298 343.413 78.4956C345.141 76.0273 348.967 74.5463 350.633 75.5954C352.299 76.6444 353.225 78.6807 351.374 82.2598L358.84 92.5651C359.527 92.6705 360.17 92.9702 360.692 93.429C360.692 93.7992 360.136 95.0334 359.828 95.8356L358.717 99.0444L345.018 101.204L350.14 97.3166Z" fill="#191B1D"/>
<path d="M586.483 268.68L582.595 268.371C579.633 264.113 576.424 259.238 572.907 254.487C569.39 249.735 566.736 245.478 562.91 240.541C570.007 241.343 572.722 246.712 577.165 250.167C580.155 252.588 582.595 255.617 584.323 259.053C584.878 259.917 586.483 260.164 587.408 260.658L586.421 268.803L586.483 268.68Z" fill="#191B1D"/>
<path d="M482.196 38.6329C479.733 39.0323 477.213 38.8974 474.807 38.2372C472.401 37.5771 470.164 36.4073 468.25 34.807C471.179 32.3824 473.922 29.7422 476.457 26.9084C479.39 23.9967 483.214 22.1502 487.318 21.6632C491.522 20.851 495.765 20.2537 500.03 19.8737C501.943 19.4417 503.856 18.8864 505.768 18.2693L506.324 19.5651C505.432 20.309 504.405 20.8746 503.3 21.2312C499.322 21.7384 495.383 22.5219 491.514 23.5762C486.419 25.3766 481.887 28.4833 478.37 32.5855C477.876 33.2026 478.37 35.1772 478.925 35.9794C479.87 37.0301 480.973 37.9256 482.196 38.6329Z" fill="#191B1D"/>
<path d="M300.511 73.8056L295.636 72.3863L300.017 70.1031H295.142L294.648 69.486L299.215 66.8325L298.845 65.7218L301.436 69.1158L311.988 66.4623V65.3516C313.838 66.7083 315.499 68.3063 316.925 70.1031C318.406 72.7565 315.382 73.497 314.025 74.6078C312.177 75.9412 310.078 76.8859 307.854 77.3846C306.514 77.6933 305.121 77.6933 303.781 77.3846C301.691 76.8853 299.63 76.2673 297.61 75.5334L300.511 73.8056Z" fill="#191B1D"/>
<path d="M649.72 148.474L641.328 150.51C643.858 146.375 645.216 145.758 651.51 145.758C652.004 144.833 652.621 143.907 653.053 142.92C653.339 142.319 653.586 141.701 653.793 141.069C655.151 141.069 656.755 141.069 656.94 141.069C658.174 138.477 659.162 135.823 660.149 133.17C660.828 131.504 660.149 128.912 663.358 129.036C664.26 130.33 664.744 131.87 664.744 133.448C664.744 135.026 664.26 136.565 663.358 137.86C662.368 139.91 662.003 142.206 662.309 144.462C662.679 148.103 659.47 148.103 657.928 148.535C655.089 149.276 652.682 150.016 651.757 153.287H650.708L649.72 148.474Z" fill="#191B1D"/>
<path d="M88.6097 35.3625C94.9044 35.2129 101.175 36.1953 107.122 38.2628L98.5447 43.5079C96.0147 45.1124 94.1635 46.655 92.3739 47.8892L86.2031 44.0016C87.3139 41.7184 90.7695 39.8055 88.6097 35.3625Z" fill="#191B1D"/>
<path d="M152.296 20.1198L154.147 18.5154L146.742 17.0961C148.161 13.3319 149.889 11.2338 153.468 11.8509C154.384 12.0879 155.274 12.4188 156.122 12.8382C157.12 13.2654 158.185 13.5159 159.269 13.5787C160.75 15.0597 161.922 17.2195 164.267 15.2448L167.476 17.8366C163.774 22.9584 159.207 23.6988 152.296 20.1198Z" fill="#191B1D"/>
<path d="M381.16 10.4322L392.268 11.3578L390.972 8.95117L409.484 16.4178V17.652H403.313C402.881 16.7264 402.758 15.6773 402.203 15.3071C401.839 15.1228 401.438 15.0267 401.03 15.0267C400.623 15.0267 400.221 15.1228 399.858 15.3071C397.883 16.603 396.032 18.2074 393.687 19.9969L388.38 18.6393L390.663 17.4669H387.331V16.8498L391.589 15.3688V14.5049C389.812 15.0566 387.956 15.3068 386.097 15.2454C384.325 14.4241 382.699 13.3195 381.284 11.9748L381.16 10.4322Z" fill="#191B1D"/>
<path d="M154.774 28.4503L157.366 27.7715V29.561C165.017 34.8679 173.471 29.561 181.493 32.2144C181.058 33.4977 180.131 34.556 178.917 35.1574C177.702 35.7588 176.299 35.8544 175.014 35.4233H174.459C173.393 35.3003 172.316 35.3003 171.25 35.4233C166.555 35.5054 161.858 35.3406 157.181 34.9296C156.44 34.9296 155.576 33.3869 155.144 32.3379C154.868 31.0611 154.744 29.7562 154.774 28.4503Z" fill="#191B1D"/>
<path d="M106.749 31.4742H105.7H104.775C104.466 31.4742 104.775 30.9805 104.775 30.8571C108.169 26.5376 111.809 29.1293 115.327 30.3635C116.87 30.9188 118.35 31.4742 120.572 32.3998L118.721 28.2037L120.881 26.7227C121.251 26.7227 121.559 27.1546 121.683 27.4014C122.423 29.2527 122.979 31.289 125.817 29.8081C126.187 29.8081 127.668 30.4251 127.854 30.9805C127.854 31.3944 127.753 31.8021 127.559 32.1679C127.366 32.5337 127.085 32.8464 126.743 33.0786C121.498 34.0659 116.252 34.8681 111.007 35.732C111.007 35.732 110.514 35.3618 109.835 34.7447L115.08 33.3871V32.5849L103.355 33.5722V33.0169L106.873 31.721L106.749 31.4742Z" fill="#191B1D"/>
<path d="M717.484 366.365L731.986 354.023C732.615 354.276 733.199 354.63 733.714 355.072C734.207 355.504 734.763 356.677 734.577 356.862C733.035 358.528 732.973 361.49 730.134 362.107C729.487 362.314 728.924 362.726 728.53 363.28C724.211 368.648 724.211 368.648 717.484 366.365Z" fill="#191B1D"/>
<path d="M620.982 259.177L623.635 264.731L621.414 266.397L618.76 261.152C618.76 266.89 618.76 267.322 616.786 268.495C616.354 266.397 615.86 264.299 615.428 262.324H614.688C615.798 258.683 616.909 255.104 618.02 251.34C621.414 250.846 625.363 254.61 628.51 249.674C627.399 253.315 627.029 253.561 624.129 253.376C622.555 253.13 620.952 253.13 619.377 253.376C616.292 254.425 618.328 256.03 618.945 257.387L624.499 255.536L624.808 256.277L620.982 259.177Z" fill="#191B1D"/>
<path d="M335.458 95.3419V90.0967C336.667 89.047 337.82 87.9347 338.913 86.7645C340.765 84.6664 342.616 86.0857 344.22 86.7645C345.825 87.4432 345.516 88.8625 343.912 89.8499C343.912 89.8499 343.541 90.5286 343.541 90.9606C343.541 91.3926 343.912 94.3545 343.541 94.6631C341.263 95.7991 338.861 96.6687 336.383 97.2548C335.89 97.2548 335.211 96.3909 334.594 95.8972L335.458 95.3419Z" fill="#191B1D"/>
<path d="M145.624 38.633L143.34 40.4843L146.673 41.9652C147.66 45.4826 144.019 45.3592 142.6 46.7785C142.6 46.7785 140.749 45.7295 139.761 45.1741L133.961 41.8418V40.7928L139.021 41.6567L136.368 38.8798C137.57 37.6328 139.214 36.9081 140.945 36.862C142.677 36.8158 144.357 37.4518 145.624 38.633Z" fill="#191B1D"/>
<path d="M669.584 103.981H666.684C666.993 106.943 667.301 109.843 667.61 112.497H664.771C666.622 104.66 662.303 96.2059 666.808 87.4434C667.795 93.4907 668.659 98.7359 669.584 103.981Z" fill="#191B1D"/>
<path d="M586.422 268.803C588.433 269.486 590.497 270.002 592.593 270.346C595.863 270.716 599.134 270.716 602.466 270.901C603.276 270.826 604.087 271.045 604.749 271.518L602.774 272.567L607.896 274.604V275.406C605.335 275.414 602.777 275.229 600.244 274.85C596.283 274.307 592.365 273.482 588.52 272.382C587.844 272.221 587.259 271.8 586.89 271.212C586.521 270.623 586.397 269.914 586.545 269.235C586.522 269.051 586.522 268.864 586.545 268.68L586.422 268.803Z" fill="#191B1D"/>
<path d="M662.863 124.778L661.321 128.172C659.963 123.914 660.58 122.494 663.481 122.433L664.468 115.213C667.121 116.756 667.738 121.013 671.749 119.656L672.367 122.68L666.813 125.888L662.863 124.778Z" fill="#191B1D"/>
<path d="M661.326 25.6745C659.567 25.6117 657.815 25.4261 656.081 25.1192C655.526 25.1192 654.662 23.8233 654.785 23.3296C654.909 22.836 655.834 22.0338 656.513 21.6018C656.728 21.5102 656.959 21.4629 657.192 21.4629C657.425 21.4629 657.656 21.5102 657.871 21.6018C661.757 22.187 665.709 22.187 669.595 21.6018C670.336 21.6018 671.076 22.5891 671.755 23.0828C671.138 23.6382 670.583 24.6872 669.842 24.8106C667.004 25.2426 664.227 25.4277 661.326 25.6745Z" fill="#191B1D"/>
<path d="M744.325 346.37C743.959 347.296 743.505 348.185 742.967 349.023C741.363 351.245 739.635 353.405 737.907 355.194C737.855 355.248 737.793 355.291 737.724 355.321C737.655 355.35 737.581 355.365 737.506 355.365C737.431 355.365 737.357 355.35 737.288 355.321C737.219 355.291 737.157 355.248 737.105 355.194C737.043 355.035 737.043 354.859 737.105 354.7L734.637 349.887L736.858 344.087C739.08 343.038 740.746 349.455 744.263 345.012L744.325 346.37Z" fill="#191B1D"/>
<path d="M135.509 30.3635V28.2654L139.459 30.3635L138.533 28.0803C140.091 27.8951 141.665 27.8951 143.223 28.0803C143.778 28.0803 144.457 29.8698 144.334 30.7337C144.21 31.5976 143.47 33.8191 142.667 33.9425C141.865 34.066 140.076 33.1403 138.78 32.7084C137.484 32.2764 136.867 32.2764 135.941 32.0296C134.969 31.8358 134.018 31.5464 133.103 31.1657C132.179 30.5838 131.293 29.945 130.449 29.2527C130.881 28.7591 131.498 27.8952 131.622 27.9569C132.647 28.5003 133.619 29.1408 134.522 29.8698C134.736 30.0932 134.923 30.3419 135.077 30.6103L135.509 30.3635Z" fill="#191B1D"/>
<path d="M173.031 201.973C174.067 200.21 175.707 198.881 177.647 198.235C179.588 197.588 181.697 197.666 183.583 198.456C187.718 200.554 191.729 202.899 196.357 205.367L190.186 206.107C188.829 204.441 187.965 202.775 186.607 202.035C184.146 200.715 181.473 199.837 178.708 199.443C176.919 199.32 175.006 200.986 173.031 201.973Z" fill="#191B1D"/>
<path d="M617.884 208.639C622.574 210.058 623.376 212.156 621.587 214.809C619.797 217.463 620.476 218.759 623.747 219.438C624.734 219.702 625.703 220.031 626.647 220.425L625.536 222.832C623.376 220.795 619.797 221.227 617.638 218.389C615.478 215.55 620.229 212.588 617.884 208.639Z" fill="#191B1D"/>
<path d="M158.844 37.7068C158.805 38.3021 158.647 38.8835 158.379 39.4164C158.111 39.9493 157.739 40.4228 157.284 40.8087C156.829 41.1945 156.301 41.4848 155.731 41.6622C155.162 41.8396 154.562 41.9005 153.969 41.8412C153.537 41.8412 152.735 41.8412 152.673 42.2115C152.303 44.8649 150.328 43.9393 149.773 42.8903C149.217 41.8412 148.538 39.0644 149.341 38.1388C150.786 37.1419 152.526 36.6634 154.277 36.7812C155.831 36.9037 157.365 37.2146 158.844 37.7068Z" fill="#191B1D"/>
<path d="M629.107 237.578L629.601 240.047L628.614 240.602L624.911 235.789L622.073 236.344L621.641 235.604L630.527 230.605L631.144 237.578H629.107Z" fill="#191B1D"/>
<path d="M569.187 8.21096L554.5 11.6049C554.5 10.6793 554.5 9.38344 554.994 9.0132C556.988 7.43254 559.422 6.50703 561.963 6.36342C564.504 6.21982 567.027 6.86511 569.187 8.21096Z" fill="#191B1D"/>
<path d="M92.7383 29.316C94.9641 27.94 97.2958 26.7432 99.7113 25.7369C102.099 25.1316 104.536 24.7392 106.993 24.5645L107.548 25.7369C106.428 26.8655 105.232 27.917 103.969 28.884C103.32 28.4772 102.701 28.0235 102.118 27.5265C99.773 30.365 93.9107 31.4758 92.7383 29.316Z" fill="#191B1D"/>
<path d="M195.734 208.946L200.98 209.378L198.388 206.354C203.386 205.059 208.878 206.972 208.631 210.057C204.25 209.687 199.684 211.847 195.734 208.946Z" fill="#191B1D"/>
<path d="M180.561 77.2626C178.71 77.2626 177.043 77.9414 176.426 77.2626C174.513 75.6582 173.341 77.2626 171.675 77.2626C169.935 77.5116 168.169 77.5116 166.43 77.2626C170.009 71.6472 170.934 71.0919 175.377 73.807L176.241 74.3006L180.561 77.2626Z" fill="#191B1D"/>
<path d="M574.083 9.32227L573.096 12.7162C565.999 13.827 564.024 13.5801 560.445 10.4947L574.083 9.32227Z" fill="#191B1D"/>
<path d="M415.661 10.9875C412.24 11.3689 408.798 11.5338 405.356 11.4812C402.711 11.0301 400.152 10.1768 397.766 8.95117H415.661V10.9875Z" fill="#191B1D"/>
<path d="M141.067 23.7006L129.528 21.294L132.12 20.1832L128.355 19.1342V18.0234C129.908 18.1171 131.453 18.3026 132.984 18.5788C134.513 18.8838 136.003 19.3599 137.427 19.9981C138.872 20.7735 140.254 21.6607 141.561 22.6515L141.067 23.7006Z" fill="#191B1D"/>
<path d="M585.741 15.1222L572.844 16.1712L572.289 15.6158C574.387 14.3817 576.423 12.3453 578.46 12.1602C581.002 12.3581 583.488 13.0059 585.803 14.0731L585.741 15.1222Z" fill="#191B1D"/>
<path d="M531.307 230.236C532.654 232.188 533.831 234.253 534.824 236.407C534.824 237.086 533.714 239.06 532.726 239.369C530.813 240.109 530.073 238.813 530.258 236.962C530.443 235.111 530.258 232.766 530.258 230.791L531.307 230.236Z" fill="#191B1D"/>
<path d="M674.48 361.427L671.086 354.023C673.138 353.826 675.205 353.826 677.257 354.023C677.874 354.023 678.738 356.182 678.429 356.799C677.308 358.499 675.982 360.054 674.48 361.427Z" fill="#191B1D"/>
<path d="M639.919 150.879C643.683 153.903 643.437 157.543 639.426 159.765V154.52L637.883 153.594L639.919 150.879Z" fill="#191B1D"/>
<path d="M375.488 129.838L377.71 128.912C377.71 129.591 378.512 130.331 378.327 130.702C377.586 132.368 379.376 135.515 375.488 135.7V129.838Z" fill="#191B1D"/>
<path d="M389.568 142.673L383.891 139.217V138.477H390.061L389.568 142.673Z" fill="#191B1D"/>
<path d="M178.898 37.8926L187.352 39.8055L186.982 41.1631C184.452 39.8055 180.75 43.7548 178.898 37.8926Z" fill="#191B1D"/>
<path d="M142.418 19.627C145.195 20.1823 147.046 20.4908 148.959 20.9845C149.121 21.1055 149.251 21.2646 149.337 21.4475C149.423 21.6304 149.463 21.8316 149.453 22.0336C149.26 22.5259 148.884 22.9242 148.404 23.1443C145.812 23.9465 144.146 22.9592 142.418 19.627Z" fill="#191B1D"/>
<path d="M621.956 192.471L619.18 200.802C616.835 197.099 617.452 194.939 621.956 192.471Z" fill="#191B1D"/>
<path d="M679.469 267.693C680.898 267.94 682.359 267.94 683.788 267.693C684.899 267.2 685.701 265.78 687.429 265.102C686.931 266.178 686.31 267.193 685.578 268.125C684.921 268.89 683.988 269.365 682.982 269.446C681.977 269.527 680.98 269.208 680.209 268.557C679.9 268.329 679.647 268.034 679.469 267.693Z" fill="#191B1D"/>
<path d="M146.43 33.0173L152.045 31.166L152.539 34.6834C151.388 34.7451 150.234 34.7451 149.083 34.6834C148.199 34.4596 147.333 34.1709 146.491 33.8195L146.43 33.0173Z" fill="#191B1D"/>
<path d="M632.763 274.913L624.062 281.084C624.453 279.14 625.571 277.418 627.188 276.271C628.805 275.124 630.8 274.638 632.763 274.913Z" fill="#191B1D"/>
<path d="M144.143 59.7363L148.957 62.5749V63.3154L141.305 62.6366L144.143 59.7363Z" fill="#191B1D"/>
<path d="M146.066 26.4766L153.039 27.0937C150.447 30.2408 148.287 28.2661 146.004 27.0937L146.066 26.4766Z" fill="#191B1D"/>
<path d="M111.688 23.6373L118.722 22.4648C117.488 25.7971 115.081 26.2907 111.688 23.6373Z" fill="#191B1D"/>
<path d="M648.253 149.521C650.228 154.088 644.921 152.175 644.921 154.582C643.07 150.879 646.773 151.311 648.253 149.521Z" fill="#191B1D"/>
<path d="M640.84 263.188H634.176C634.176 262.51 634.731 261.276 635.04 261.276C637.261 261.09 639.668 260.658 640.84 263.188Z" fill="#191B1D"/>
</g>
<path d="M12.6568 109.472C18.1778 109.472 22.6535 104.996 22.6535 99.4752C22.6535 93.9542 18.1778 89.4785 12.6568 89.4785C7.1358 89.4785 2.66016 93.9542 2.66016 99.4752C2.66016 104.996 7.1358 109.472 12.6568 109.472Z" fill="#24285B"/>
<path d="M243.09 62.0793C248.611 62.0793 253.087 57.6036 253.087 52.0826C253.087 46.5616 248.611 42.0859 243.09 42.0859C237.569 42.0859 233.094 46.5616 233.094 52.0826C233.094 57.6036 237.569 62.0793 243.09 62.0793Z" fill="#24285B"/>
<path d="M458.821 131.687C464.342 131.687 468.818 127.211 468.818 121.69C468.818 116.169 464.342 111.693 458.821 111.693C453.3 111.693 448.824 116.169 448.824 121.69C448.824 127.211 453.3 131.687 458.821 131.687Z" fill="#24285B"/>
<path d="M587.844 276.454C593.365 276.454 597.841 271.979 597.841 266.458C597.841 260.937 593.365 256.461 587.844 256.461C582.323 256.461 577.848 260.937 577.848 266.458C577.848 271.979 582.323 276.454 587.844 276.454Z" fill="#24285B"/>
<path d="M149.661 147.114C155.182 147.114 159.657 142.639 159.657 137.118C159.657 131.597 155.182 127.121 149.661 127.121C144.14 127.121 139.664 131.597 139.664 137.118C139.664 142.639 144.14 147.114 149.661 147.114Z" fill="#24285B"/>
<path d="M646.907 75.3469C652.428 75.3469 656.903 70.8712 656.903 65.3502C656.903 59.8292 652.428 55.3535 646.907 55.3535C641.386 55.3535 636.91 59.8292 636.91 65.3502C636.91 70.8712 641.386 75.3469 646.907 75.3469Z" fill="#24285B"/>
<path d="M22.6562 77.6307C22.6562 77.6307 22.9648 76.5817 23.6436 74.7305" stroke="#24285B" stroke-width="0.25375" stroke-linecap="round" stroke-linejoin="round"/>
<path d="M39.2578 48.0728C53.1376 30.7362 71.8064 17.8611 92.9437 11.048C149.592 -7.83463 261.777 -3.20652 240.179 51.8987C218.581 107.004 152.06 120.024 149.653 140.573C147.247 161.122 131.82 211.229 198.403 206.415C264.986 201.602 302.319 103.487 458.81 121.752C569.206 134.649 617.462 101.265 636.282 80.5312" stroke="#24285B" stroke-width="0.25375" stroke-linecap="round" stroke-linejoin="round" stroke-dasharray="1.01 5.09"/>
<path d="M645.48 68.0667C646.468 66.3389 646.9 65.3516 646.9 65.3516C646.9 65.3516 647.764 66.0304 649.183 67.3879" stroke="#24285B" stroke-width="0.25375" stroke-linecap="round" stroke-linejoin="round"/>
<path d="M666.4 92.3789C672.362 105.977 675.209 120.735 674.731 135.574C673.805 177.906 660.662 219.004 623.945 242.823" stroke="#24285B" stroke-width="0.25375" stroke-linecap="round" stroke-linejoin="round" stroke-dasharray="1 5.02"/>
<path d="M610.48 250.352L607.703 251.586" stroke="#24285B" stroke-width="0.25375" stroke-linecap="round" stroke-linejoin="round"/>
</g>
</svg>
